<svg width="124" height="132" viewBox="0 0 124 132" fill="none" xmlns="http://www.w3.org/2000/svg">
<rect x="1" width="120" height="120" rx="24" fill="#222222"/>
<g filter="url(#filter0_d_470_5220)">
<path d="M31.8855 61.1251C31.7278 65.5685 31.6226 68.5657 32.5089 71.3006C32.6366 71.6903 33.23 73.4511 33.4929 75.774C33.6056 76.763 33.583 77.2126 33.3953 77.2875C33.0047 77.4374 32.0583 75.8789 31.5024 74.9497C29.9476 72.3572 28.9711 70.7387 28.5205 68.2135C28.3853 67.4792 28.4078 66.0331 28.4529 63.1408C28.4679 62.1891 28.5129 60.4882 29.3692 58.9147C29.9852 57.7908 30.4283 57.7983 30.526 57.8132C30.7813 57.8357 30.9766 58.0605 31.1419 58.2553C31.4724 58.645 31.5926 59.0646 31.6752 59.4317C31.908 60.4658 31.8855 61.1251 31.8855 61.1251Z" fill="white"/>
</g>
<g filter="url(#filter1_d_470_5220)">
<path d="M34.9499 91.1934C34.9499 91.1934 33.9584 100.882 32.0957 102.688C30.2329 104.493 26.004 107.723 24.9074 108C23.8107 108.277 26.5523 109.641 29.4592 109.918C32.3661 110.196 33.7932 109.754 36.0466 110.578C38.3 111.402 40.8237 112.713 41.5373 112.713C41.65 112.713 41.7101 112.691 41.7326 112.653C41.9279 112.294 40.5083 110.885 39.7271 109.918C37.7892 107.528 37.4136 104.733 37.1958 103.107C36.8127 100.245 37.5263 99.4881 37.3085 96.888C37.301 96.7831 37.2559 96.3336 37.3761 96.3036C37.5864 96.2586 38.3751 98.9261 41.0941 102.47C44.4967 106.906 45.5934 108.053 46.1417 109.806C46.69 111.559 46.8553 114.242 47.8468 114.954C48.8383 115.666 52.6765 118.513 51.5799 118.625C50.4832 118.738 41.6425 118.955 39.5618 118.625C37.4812 118.296 31.1117 117.089 28.971 116.272C26.8303 115.448 20.626 112.766 18.0496 110.308C15.4732 107.843 13.4377 106.322 13.0546 105.003C12.634 103.572 14.6395 103.047 19.1988 100.073C25.8012 95.7716 27.4837 93.5911 32.8092 91.8303C33.7106 91.5305 34.4617 91.3282 34.9499 91.2083V91.1934Z" fill="white"/>
</g>
<g filter="url(#filter2_d_470_5220)">
<path d="M91.0967 53.1439C91.1117 51.4654 91.0441 41.5072 82.977 33.8119C74.2114 25.4497 61.5785 26.4358 61.5785 26.4358C61.5785 26.4358 48.9961 25.4497 40.2304 33.8119C32.1633 41.5072 32.0957 51.4654 32.1108 53.1439C32.1108 53.1439 31.9004 55.1445 33.0271 57.0552C34.1538 58.9659 33.5905 62.2179 33.5905 64.241C33.5905 66.2641 33.9735 70.9997 34.6045 74.2667C35.243 77.5411 35.5209 76.5445 35.5209 79.819C35.5209 83.0934 36.4297 89.455 37.2485 91.8153C38.0747 94.183 43.4452 97.997 45.4508 101.549C47.4563 105.093 48.1097 105.273 51.933 108.27C55.7562 111.26 58.0321 111.35 58.0321 111.35H65.1753C65.1753 111.35 67.4512 111.26 71.267 108.27C75.0902 105.273 75.7437 105.093 77.7492 101.549C79.7547 97.997 85.1327 94.183 85.959 91.8153C86.7777 89.455 87.6866 83.0859 87.6866 79.819C87.6866 76.552 87.957 77.5411 88.5954 74.2667C89.2339 70.9997 89.617 66.2641 89.617 64.241C89.617 62.2179 89.0536 58.9659 90.1803 57.0552C91.2995 55.1445 91.0967 53.1439 91.0967 53.1439ZM68.3601 63.5741C70.4933 60.4196 75.2104 57.8345 75.2104 57.8345C75.2104 57.8345 81.287 54.5001 86.4697 53.9157C86.6575 53.8932 87.1082 53.8557 87.1458 53.9831C87.2284 54.2453 85.3731 55.0471 84.3441 55.5117C84.1563 55.5941 80.4007 57.2875 77.5989 59.0334C75.6085 60.2622 71.8453 62.9073 69.4342 64.0537C68.946 64.2785 68.2399 64.5782 68.0822 64.3759C67.947 64.1961 68.2549 63.7315 68.3601 63.5741ZM36.7377 53.9157C41.9205 54.5001 47.9971 57.8345 47.9971 57.8345C47.9971 57.8345 52.7141 60.4196 54.8473 63.5741C54.9525 63.7315 55.2605 64.1961 55.1253 64.3759C54.9675 64.5782 54.2615 64.2785 53.7732 64.0537C51.3621 62.9073 47.599 60.2622 45.6085 59.0334C42.7993 57.2875 39.0512 55.5941 38.8634 55.5117C37.8343 55.0471 35.9791 54.2453 36.0617 53.9831C36.0992 53.8557 36.5499 53.8932 36.7377 53.9157ZM45.5033 93.7859C45.3606 93.8234 45.0752 93.0366 44.94 92.6769C44.0912 90.3316 43.5579 88.1287 43.0472 86.7575C42.0106 83.9926 40.1854 82.2542 39.4643 81.5873C38.2024 80.4109 36.948 79.6766 36.0692 79.242L35.2805 75.7727C35.4908 75.8477 35.7838 75.9601 36.1293 76.1174C37.1809 76.5895 38.1123 77.1814 39.2465 78.0881C40.5835 79.1671 41.59 79.9763 42.5739 81.2726C44.3466 83.5879 44.8574 85.9033 45.2555 87.6716C45.4508 88.5708 45.4958 90.1218 45.586 93.2389C45.586 93.3888 45.601 93.7709 45.5033 93.7859ZM42.6716 73.1202C40.3055 71.0821 39.3967 68.7668 38.5329 66.5564C38.5329 66.5564 37.8043 64.7056 37.7292 60.1273V60.1124C37.8794 59.8801 43.1072 62.8398 47.2835 65.3874C53.4953 69.1789 55.6961 71.0297 56.8679 70.1979C58.1823 69.2688 57.311 65.6422 57.8894 65.5673C58.1222 65.5298 58.3852 66.1218 58.4828 66.3615C59.0762 67.7327 59.4217 69.9582 58.4828 71.9813C56.973 75.2557 53.0446 76.0125 52.3085 76.1549C47.3211 77.114 43.3927 73.7421 42.6716 73.1202ZM66.0241 100.177C64.7246 99.8627 63.7106 99.7803 63.2074 99.7578C62.5464 99.7204 61.9906 99.7354 61.6 99.7653C61.2094 99.7354 60.6611 99.7204 60.0001 99.7578C59.4968 99.7803 58.4753 99.8627 57.1833 100.177C56.0116 100.462 55.4257 100.739 55.3806 100.635C55.313 100.515 56.0942 99.9152 56.8153 99.6005C57.8443 99.1434 58.3626 98.9186 59.1438 98.7688C59.3841 98.7238 60.1803 98.5814 61.2094 98.6339C61.3746 98.6414 61.5098 98.6489 61.6 98.6564C61.6976 98.6489 61.8328 98.6414 61.9981 98.6339C63.0271 98.5814 63.8233 98.7238 64.0637 98.7688C64.8448 98.9186 65.3631 99.1434 66.3922 99.6005C67.1132 99.9152 67.8944 100.515 67.8268 100.635C67.7817 100.739 67.1959 100.462 66.0241 100.177ZM67.5263 93.9058C65.7912 93.4862 64.4242 93.3738 63.7557 93.3438C62.8694 93.2914 62.1258 93.3214 61.6 93.3513C61.0817 93.3214 60.3381 93.2914 59.4517 93.3438C58.7832 93.3738 57.4162 93.4862 55.6811 93.9058C54.1112 94.288 53.3301 94.6626 53.2625 94.5202C53.1798 94.3554 54.2239 93.5536 55.1929 93.1265C56.5674 92.5271 57.2585 92.2199 58.31 92.0176C58.6255 91.9576 59.6921 91.7628 61.0817 91.8377C61.292 91.8452 61.4723 91.8602 61.6 91.8752C61.7277 91.8602 61.9079 91.8452 62.1258 91.8377C63.5153 91.7628 64.5819 91.9576 64.8974 92.0176C65.949 92.2199 66.64 92.5271 68.0146 93.1265C68.9835 93.5536 70.0276 94.3554 69.945 94.5202C69.8774 94.6626 69.0962 94.288 67.5263 93.9058ZM70.8689 88.6082C70.8689 88.6082 70.7712 88.5633 70.7337 88.5258C70.2529 87.9938 68.0071 83.1309 67.6991 83.2582C67.6841 83.2582 67.6841 83.2657 67.6766 83.2732C67.3836 83.7078 66.1969 85.124 65.8363 85.4987C65.0251 86.3379 63.8684 86.4952 63.1848 86.5926C62.5389 86.6825 61.6 86.6977 61.6 86.6977C61.6 86.6977 60.6686 86.6825 60.0226 86.5926C59.3391 86.4952 58.1823 86.3379 57.3711 85.4987C57.0106 85.124 55.8163 83.7078 55.5309 83.2732C55.5234 83.2657 55.5158 83.2582 55.5083 83.2582C55.2004 83.1309 52.947 87.9938 52.4738 88.5258C52.4362 88.5633 52.3761 88.6232 52.3386 88.6082C52.1733 88.5408 52.5714 87.222 52.962 86.0382C53.3301 85.1165 55.6586 79.1446 56.1092 79.242C56.2895 79.287 56.282 79.6916 56.4022 80.2236C56.4848 80.5907 56.928 82.419 58.2274 83.1983C58.9109 83.6104 59.7146 83.6479 60.7887 83.7078C61.1268 83.7228 61.3972 83.7228 61.6 83.7153C61.8103 83.7153 62.0807 83.7153 62.4112 83.7078C63.4928 83.6479 64.289 83.6104 64.98 83.1983C66.2795 82.419 66.7226 80.5907 66.8053 80.2236C66.9254 79.6916 66.9179 79.287 67.0982 79.242C67.5414 79.1446 69.8774 85.1165 70.2454 86.0382C70.636 87.222 71.0341 88.5408 70.8689 88.6082ZM70.8989 76.1549C70.1628 76.0125 66.2344 75.2557 64.7171 71.9813C63.7857 69.9582 64.1313 67.7327 64.7171 66.3615C64.8223 66.1218 65.0852 65.5298 65.318 65.5673C65.8964 65.6422 65.0251 69.2688 66.3396 70.1979C67.5113 71.0297 69.7121 69.1789 75.9239 65.3874C80.1002 62.8398 85.328 59.8801 85.4707 60.1124C85.4707 60.1124 85.4732 60.1174 85.4783 60.1273C85.4031 64.7056 84.6746 66.5564 84.6746 66.5564C83.8032 68.7668 82.9019 71.0821 80.5359 73.1202C79.8148 73.7421 75.8864 77.114 70.8989 76.1549ZM87.1382 79.242C86.2594 79.6766 85.005 80.4109 83.7432 81.5873C83.0221 82.2542 81.1968 83.9926 80.1603 86.7575C79.6495 88.1287 79.1162 90.3316 78.2675 92.6769C78.1323 93.0366 77.8468 93.8234 77.7041 93.7859C77.6065 93.7709 77.614 93.3888 77.6215 93.2389C77.7116 90.1218 77.7567 88.5708 77.952 87.6716C78.3426 85.9033 78.8608 83.5879 80.626 81.2726C81.6175 79.9763 82.624 79.1671 83.961 78.0881C85.0952 77.1814 86.0266 76.5895 87.0707 76.1174C87.4237 75.9601 87.7166 75.8477 87.9269 75.7727L87.1382 79.242Z" fill="white"/>
</g>
<g filter="url(#filter3_d_470_5220)">
<path d="M91.314 61.1251C91.4717 65.5685 91.5769 68.5657 90.6905 71.3006C90.5628 71.6903 89.9695 73.4511 89.7066 75.774C89.5939 76.763 89.6164 77.2126 89.8042 77.2875C90.1948 77.4374 91.1412 75.8789 91.6971 74.9497C93.2519 72.3572 94.2283 70.7387 94.679 68.2135C94.8142 67.4792 94.7917 66.0331 94.7466 63.1408C94.7316 62.1891 94.6865 60.4882 93.8303 58.9147C93.2143 57.7908 92.7712 57.7983 92.6735 57.8132C92.4181 57.8357 92.2228 58.0605 92.0576 58.2553C91.7271 58.645 91.6069 59.0646 91.5243 59.4317C91.2914 60.4658 91.314 61.1251 91.314 61.1251Z" fill="white"/>
</g>
<g filter="url(#filter4_d_470_5220)">
<path d="M88.2499 91.1934C88.2499 91.1934 89.2414 100.882 91.1042 102.688C92.967 104.493 97.1958 107.723 98.2925 108C99.3891 108.277 96.6475 109.641 93.7406 109.918C90.8338 110.196 89.4066 109.754 87.1533 110.578C84.8999 111.402 82.3761 112.713 81.6625 112.713C81.5499 112.713 81.4898 112.691 81.4672 112.653C81.2719 112.294 82.6916 110.885 83.4727 109.918C85.4106 107.528 85.7862 104.733 86.004 103.107C86.3871 100.245 85.6735 99.4881 85.8914 96.888C85.8989 96.7831 85.9439 96.3336 85.8238 96.3036C85.6134 96.2586 84.8248 98.9261 82.1057 102.47C78.7031 106.906 77.6064 108.053 77.0581 109.806C76.5098 111.559 76.3446 114.242 75.3531 114.954C74.3616 115.666 70.5233 118.513 71.62 118.625C72.7166 118.738 81.5574 118.955 83.638 118.625C85.7186 118.296 92.0882 117.089 94.2289 116.272C96.3696 115.448 102.574 112.766 105.15 110.308C107.727 107.843 109.762 106.322 110.145 105.003C110.566 103.572 108.56 103.047 104.001 100.073C97.3986 95.7716 95.7161 93.5911 90.3906 91.8303C89.4893 91.5305 88.7381 91.3282 88.2499 91.2083V91.1934Z" fill="white"/>
</g>
<defs>
<filter id="filter0_d_470_5220" x="15.418" y="44.8101" width="31.1433" height="45.4875" filterUnits="userSpaceOnUse" color-interpolation-filters="sRGB">
<feFlood flood-opacity="0" result="BackgroundImageFix"/>
<feColorMatrix in="SourceAlpha" type="matrix" values="0 0 0 0 0 0 0 0 0 0 0 0 0 0 0 0 0 0 127 0" result="hardAlpha"/>
<feOffset/>
<feGaussianBlur stdDeviation="6.5"/>
<feComposite in2="hardAlpha" operator="out"/>
<feColorMatrix type="matrix" values="0 0 0 0 1 0 0 0 0 1 0 0 0 0 1 0 0 0 0.5 0"/>
<feBlend mode="normal" in2="BackgroundImageFix" result="effect1_dropShadow_470_5220"/>
<feBlend mode="normal" in="SourceGraphic" in2="effect1_dropShadow_470_5220" result="shape"/>
</filter>
<filter id="filter1_d_470_5220" x="0" y="78.1934" width="64.7751" height="53.6067" filterUnits="userSpaceOnUse" color-interpolation-filters="sRGB">
<feFlood flood-opacity="0" result="BackgroundImageFix"/>
<feColorMatrix in="SourceAlpha" type="matrix" values="0 0 0 0 0 0 0 0 0 0 0 0 0 0 0 0 0 0 127 0" result="hardAlpha"/>
<feOffset/>
<feGaussianBlur stdDeviation="6.5"/>
<feComposite in2="hardAlpha" operator="out"/>
<feColorMatrix type="matrix" values="0 0 0 0 1 0 0 0 0 1 0 0 0 0 1 0 0 0 0.5 0"/>
<feBlend mode="normal" in2="BackgroundImageFix" result="effect1_dropShadow_470_5220"/>
<feBlend mode="normal" in="SourceGraphic" in2="effect1_dropShadow_470_5220" result="shape"/>
</filter>
<filter id="filter2_d_470_5220" x="19.0952" y="13.3999" width="85.0159" height="110.95" filterUnits="userSpaceOnUse" color-interpolation-filters="sRGB">
<feFlood flood-opacity="0" result="BackgroundImageFix"/>
<feColorMatrix in="SourceAlpha" type="matrix" values="0 0 0 0 0 0 0 0 0 0 0 0 0 0 0 0 0 0 127 0" result="hardAlpha"/>
<feOffset/>
<feGaussianBlur stdDeviation="6.5"/>
<feComposite in2="hardAlpha" operator="out"/>
<feColorMatrix type="matrix" values="0 0 0 0 1 0 0 0 0 1 0 0 0 0 1 0 0 0 0.5 0"/>
<feBlend mode="normal" in2="BackgroundImageFix" result="effect1_dropShadow_470_5220"/>
<feBlend mode="normal" in="SourceGraphic" in2="effect1_dropShadow_470_5220" result="shape"/>
</filter>
<filter id="filter3_d_470_5220" x="76.6382" y="44.8101" width="31.1433" height="45.4875" filterUnits="userSpaceOnUse" color-interpolation-filters="sRGB">
<feFlood flood-opacity="0" result="BackgroundImageFix"/>
<feColorMatrix in="SourceAlpha" type="matrix" values="0 0 0 0 0 0 0 0 0 0 0 0 0 0 0 0 0 0 127 0" result="hardAlpha"/>
<feOffset/>
<feGaussianBlur stdDeviation="6.5"/>
<feComposite in2="hardAlpha" operator="out"/>
<feColorMatrix type="matrix" values="0 0 0 0 1 0 0 0 0 1 0 0 0 0 1 0 0 0 0.5 0"/>
<feBlend mode="normal" in2="BackgroundImageFix" result="effect1_dropShadow_470_5220"/>
<feBlend mode="normal" in="SourceGraphic" in2="effect1_dropShadow_470_5220" result="shape"/>
</filter>
<filter id="filter4_d_470_5220" x="58.4248" y="78.1934" width="64.7751" height="53.6067" filterUnits="userSpaceOnUse" color-interpolation-filters="sRGB">
<feFlood flood-opacity="0" result="BackgroundImageFix"/>
<feColorMatrix in="SourceAlpha" type="matrix" values="0 0 0 0 0 0 0 0 0 0 0 0 0 0 0 0 0 0 127 0" result="hardAlpha"/>
<feOffset/>
<feGaussianBlur stdDeviation="6.5"/>
<feComposite in2="hardAlpha" operator="out"/>
<feColorMatrix type="matrix" values="0 0 0 0 1 0 0 0 0 1 0 0 0 0 1 0 0 0 0.5 0"/>
<feBlend mode="normal" in2="BackgroundImageFix" result="effect1_dropShadow_470_5220"/>
<feBlend mode="normal" in="SourceGraphic" in2="effect1_dropShadow_470_5220" result="shape"/>
</filter>
</defs>
</svg>
