<svg width="960" height="540" viewBox="0 0 960 540" fill="none" xmlns="http://www.w3.org/2000/svg">
  <rect width="960" height="540" rx="40" fill="url(#paint0_linear)" />
  <circle cx="238" cy="170" r="90" fill="url(#paint1_radial)" />
  <circle cx="720" cy="380" r="110" fill="url(#paint2_radial)" />
  <path d="M160 360C160 307.772 202.772 265 255 265H498C533.763 265 568.024 281.332 589.88 309.427L640.12 374.573C661.976 402.668 696.237 419 732 419H800C833.137 419 860 445.863 860 479V479C860 485.627 854.627 491 848 491H188C176.954 491 168 482.046 168 471V368C165.165 368 162.61 364.024 160 360Z" fill="#0F172A" fill-opacity="0.55" />
  <path d="M280 220L440 124L600 220" stroke="#FBBF24" stroke-width="14" stroke-linecap="round" stroke-linejoin="round" opacity="0.7" />
  <path d="M440 124L440 292" stroke="#38BDF8" stroke-width="10" stroke-linecap="round" stroke-dasharray="24 24" opacity="0.7" />
  <defs>
    <linearGradient id="paint0_linear" x1="120" y1="60" x2="840" y2="520" gradientUnits="userSpaceOnUse">
      <stop stop-color="#06102A" />
      <stop offset="1" stop-color="#020617" />
    </linearGradient>
    <radialGradient id="paint1_radial" cx="0" cy="0" r="1" gradientUnits="userSpaceOnUse" gradientTransform="translate(238 170) rotate(90) scale(115)">
      <stop stop-color="#FBBF24" stop-opacity="0.85" />
      <stop offset="1" stop-color="#020617" stop-opacity="0" />
    </radialGradient>
    <radialGradient id="paint2_radial" cx="0" cy="0" r="1" gradientUnits="userSpaceOnUse" gradientTransform="translate(720 380) rotate(90) scale(140)">
      <stop stop-color="#38BDF8" stop-opacity="0.8" />
      <stop offset="1" stop-color="#020617" stop-opacity="0" />
    </radialGradient>
  </defs>
</svg>
